:SAMPLES-PER-SECOND 30
:FRAME-RANGE 1-3535
:FULLY-SPECIFIED
:DEGREES
1437
root  75.4185 37.5283 78.8297 -132.874 -81.352 139.811
RightUpLeg  8.23348 -1.06949 2.75177
RightLeg  10.784 4.47952 -3.1707
RightFoot  -24.7752 -0.890998 -6.13412
RightToes  1.22775e-009 1.2921e-014 -6.02303e-014
Spine  9.84607 0.761649 2.16408
Spine1  -2.46876 1.27846 -3.90352
HEad  -11.657 -5.40107 0.461563
LeftShoulder1  0.8931 1.12716 -31.5048
LeftArm  -12.4672 18.7744 -29.1368
LeftForeArm  15.9938 -3.9162 -14.7766
LeftHand  0.547962 -4.6235 -6.05749
RightShoulder  5.14797 5.59811 49.5719
RightArm  20.3755 -6.71886 15.264
RightForeArm  12.2053 61.0113 19.6662
RightHand  0.414271 0.993516 7.45159
LeftUpLeg  -36.7476 13.6607 -6.27361
LeftLeg  23.1615 -3.40939 -1.27218
LeftFoot  -3.89757 0.847315 -12.6272
LeftToes  2.52163e-011 5.65494e-011 -1.09494e-012
1438
root  74.1737 37.1878 78.9404 -140.888 -80.3263 147.968
RightUpLeg  10.7598 -1.77235 2.1325
RightLeg  9.79272 3.88543 -2.89463
RightFoot  -26.0251 -0.857948 -5.2857
RightToes  1.22775e-009 1.2921e-014 -6.02303e-014
Spine  10.0191 1.09022 1.83731
Spine1  -2.8407 1.60701 -4.29826
HEad  -12.2296 -4.41202 0.965935
LeftShoulder1  0.865153 1.17083 -31.0069
LeftArm  -10.1746 19.1155 -27.6013
LeftForeArm  13.2172 -6.80956 -14.1594
LeftHand  0.520226 -4.57193 -5.76997
RightShoulder  5.21857 5.71753 49.6
RightArm  17.1644 -6.18349 14.5052
RightForeArm  16.3854 65.6445 24.2835
RightHand  0.360226 0.531709 7.02941
LeftUpLeg  -38.1064 13.5687 -6.39608
LeftLeg  17.9937 -3.1332 -0.816115
LeftFoot  -3.39203 0.883547 -12.3867
LeftToes  2.52163e-011 5.65494e-011 -1.09494e-012
1439
root  72.7734 36.7159 78.9925 -148.236 -78.8303 154.892
RightUpLeg  13.8855 -2.56842 1.31181
RightLeg  9.42281 3.42946 -2.8141
RightFoot  -27.6136 -0.692707 -3.53397
RightToes  1.22775e-009 1.2921e-014 -6.02303e-014
Spine  10.6074 1.59811 1.24646
Spine1  -3.11229 2.13771 -4.80422
HEad  -12.8284 -3.5933 1.81582
LeftShoulder1  0.840096 1.17346 -29.9629
LeftArm  -4.63273 19.1292 -25.484
LeftForeArm  7.36062 -11.0104 -12.8617
LeftHand  0.406969 -4.07976 -4.71877
RightShoulder  5.52104 6.28773 49.4156
RightArm  14.1543 -5.26863 14.0199
RightForeArm  21.8969 69.5941 29.9687
RightHand  0.336347 0.422632 6.69752
LeftUpLeg  -38.9969 10.9984 -4.03172
LeftLeg  17.6903 -1.17376 -0.0968601
LeftFoot  -3.57536 0.733339 -10.4678
LeftToes  2.52163e-011 5.65494e-011 -1.09494e-012
1440
root  71.195 36.1838 78.9866 -154.635 -76.6562 160.768
RightUpLeg  17.01 -3.24931 -0.160259
RightLeg  9.79908 5.40029 -2.53944
RightFoot  -28.9729 -0.463217 -1.71839
RightToes  1.22775e-009 1.2921e-014 -6.02303e-014
Spine  11.08 2.29916 0.639728
Spine1  -3.46375 2.95995 -5.90224
HEad  -13.198 -3.01756 2.98027
LeftShoulder1  0.785535 1.21059 -28.1323
LeftArm  0.327711 18.6412 -23.5366
LeftForeArm  1.27007 -14.7447 -10.9543
LeftHand  0.261801 -3.15519 -3.32961
RightShoulder  5.97093 7.12128 49.245
RightArm  11.7424 -4.40356 13.6879
RightForeArm  27.0229 72.0203 34.8296
RightHand  0.300347 0.500177 5.88919
LeftUpLeg  -40.428 9.07735 -1.18432
LeftLeg  22.9947 0.77884 0.691518
LeftFoot  -1.71258 0.843963 -9.88159
LeftToes  2.52163e-011 5.65494e-011 -1.09494e-012
1441
root  69.3755 35.5168 78.9534 -160.523 -74.2415 166.67
RightUpLeg  18.6042 -1.31803 -0.318724
RightLeg  13.0546 6.0294 -2.69471
RightFoot  -30.3941 0.0210879 1.35695
RightToes  1.22775e-009 1.2921e-014 -6.02303e-014
Spine  10.5446 3.15842 0.28462
Spine1  -3.99501 3.84824 -6.85813
HEad  -12.729 -2.12824 4.84095
LeftShoulder1  0.77463 1.08165 -25.7877
LeftArm  -2.6622 16.4245 -22.542
LeftForeArm  4.34613 -13.6327 -11.3748
LeftHand  0.169586 -2.93437 -2.14759
RightShoulder  6.32951 7.8873 48.6868
RightArm  10.4759 -4.44387 13.741
RightForeArm  29.2927 72.6316 36.1473
RightHand  0.27495 0.889588 5.00984
LeftUpLeg  -42.6738 10.9066 0.240499
LeftLeg  33.3511 3.48529 2.81721
LeftFoot  -3.01726 0.779989 -10.4495
LeftToes  2.52163e-011 5.65494e-011 -1.09494e-012
1442
root  67.6099 35.0991 78.7913 -162.932 -72.5905 169.273
RightUpLeg  18.9146 6.68526 1.75274
RightLeg  18.7072 -1.46154 -1.84586
RightFoot  -29.0057 0.912625 7.13649
RightToes  1.22775e-009 1.2921e-014 -6.02303e-014
Spine  9.78521 3.82589 -2.16237
Spine1  -3.72217 4.35463 -6.54237
HEad  -12.8127 -1.63976 7.08161
LeftShoulder1  0.884214 0.562569 -23.7904
LeftArm  -5.6165 14.1848 -23.3073
LeftForeArm  8.32001 -14.2262 -10.5242
LeftHand  0.18952 -2.38025 -2.64625
RightShoulder  6.2255 7.76239 48.4169
RightArm  11.0342 -5.27194 13.8919
RightForeArm  25.5925 71.389 33.41
RightHand  0.219684 1.08216 3.8469
LeftUpLeg  -42.9281 12.7521 0.868707
LeftLeg  39.2779 4.50266 4.31175
LeftFoot  -2.62155 0.76844 -9.85609
LeftToes  2.52163e-011 5.65494e-011 -1.09494e-012
1443
root  66.0133 34.9427 78.5957 -163.713 -72.5965 169.973
RightUpLeg  14.8316 2.53248 -0.507101
RightLeg  30.9846 -0.912861 -0.833083
RightFoot  -22.7668 1.54422 16.8787
RightToes  1.22775e-009 1.2921e-014 -6.02303e-014
Spine  10.3087 3.5215 -6.49719
Spine1  -3.04524 3.45452 -4.51708
HEad  -14.3684 -0.545177 8.83436
LeftShoulder1  1.08815 -0.153155 -23.4761
LeftArm  -4.03465 11.2855 -24.9587
LeftForeArm  6.25385 -16.4585 -9.01869
LeftHand  0.0662971 -3.22045 -0.659466
RightShoulder  6.33818 7.69155 49.6069
RightArm  14.3963 -6.76608 13.4059
RightForeArm  16.4523 67.0734 26.3428
RightHand  0.138714 1.40071 2.24736
LeftUpLeg  -42.2246 13.5948 0.884198
LeftLeg  43.1765 3.37404 3.78518
LeftFoot  -4.92961 0.465236 -7.77134
LeftToes  2.52163e-011 5.65494e-011 -1.09494e-012
1444
root  64.4249 35.0914 78.5167 -164.762 -73.3032 171.035
RightUpLeg  4.9094 -4.80058 -2.2842
RightLeg  50.1498 -4.35042 -5.92551
RightFoot  -7.00977 -0.41162 9.5986
RightToes  1.22775e-009 1.2921e-014 -6.02303e-014
Spine  11.7885 2.51996 -8.91472
Spine1  -3.25241 1.92567 -2.55805
HEad  -16.2742 0.868619 9.29861
LeftShoulder1  1.31483 -0.779447 -24.4716
LeftArm  -3.67527 5.96374 -27.0343
LeftForeArm  7.7993 -17.1918 -8.38788
LeftHand  0.064624 -3.31221 -0.623418
RightShoulder  6.13224 7.09239 50.7008
RightArm  19.8624 -8.05134 14.1014
RightForeArm  9.39938 56.3465 16.2919
RightHand  0.142214 2.08943 2.0342
LeftUpLeg  -40.2948 14.5958 1.01308
LeftLeg  44.922 1.96067 2.50674
LeftFoot  -8.5888 0.256157 -8.51211
LeftToes  2.52163e-011 5.65494e-011 -1.09494e-012
1445
root  63.0748 35.2444 78.4977 -162.799 -73.2309 169.591
RightUpLeg  -6.42567 -10.484 -3.28229
RightLeg  65.9966 -5.55988 -14.0749
RightFoot  -4.16189 -0.306581 4.43195
RightToes  1.22775e-009 1.2921e-014 -6.02303e-014
Spine  12.9483 1.61318 -11.1947
Spine1  -3.11305 0.586002 -1.92671
HEad  -17.1068 2.16067 9.39716
LeftShoulder1  1.44648 -1.15641 -24.8333
LeftArm  6.24943 1.14051 -29.9206
LeftForeArm  2.8435 -21.8561 -5.35904
LeftHand  0.0722028 -4.14324 -0.605973
RightShoulder  5.78452 6.38828 51.2246
RightArm  29.5016 -9.60998 14.7851
RightForeArm  3.34649 42.357 9.99602
RightHand  0.136829 2.69969 1.75416
LeftUpLeg  -38.8428 16.2457 -0.0700486
LeftLeg  45.534 0.827392 1.32658
LeftFoot  -11.2746 0.072324 -8.37564
LeftToes  2.52163e-011 5.65494e-011 -1.09494e-012
1446
root  61.6373 35.5793 78.4842 -161.674 -72.7927 168.967
RightUpLeg  -17.339 -14.6599 -2.89778
RightLeg  73.7827 -4.07116 -16.5909
RightFoot  -6.85932 -0.148923 2.61353
RightToes  1.22775e-009 1.2921e-014 -6.02303e-014
Spine  14.017 1.03187 -12.0595
Spine1  -3.37292 -0.254596 -1.30395
HEad  -18.6295 3.98299 8.66096
LeftShoulder1  1.46374 -1.32143 -24.0978
LeftArm  7.98813 -0.589118 -32.257
LeftForeArm  14.7343 -31.4064 -6.06311
LeftHand  0.0128188 -4.58012 0.140242
RightShoulder  4.51579 4.38288 50.1919
RightArm  41.5967 -14.0003 13.2054
RightForeArm  -2.75138 36.2612 8.39423
RightHand  -0.0207007 2.79076 -0.509838
LeftUpLeg  -36.2754 17.6598 -0.765854
LeftLeg  44.677 0.0521052 0.480179
LeftFoot  -13.5528 -0.0819227 -8.43311
LeftToes  2.52163e-011 5.65494e-011 -1.09494e-012
1447
root  60.1492 35.9805 78.4368 -161.426 -72.1834 169.399
RightUpLeg  -27.6474 -16.8734 -1.2866
RightLeg  74.7187 -3.54142 -15.6847
RightFoot  -7.8155 -0.206282 4.97168
RightToes  1.22775e-009 1.2921e-014 -6.02303e-014
Spine  14.3294 0.430615 -12.2491
Spine1  -3.04154 -1.04047 0.201009
HEad  -20.4044 6.35148 6.7806
LeftShoulder1  1.38589 -1.19084 -23.2395
LeftArm  5.6743 1.98339 -32.6887
LeftForeArm  30.6796 -46.8499 -9.73217
LeftHand  -0.0990793 -4.46027 1.45395
RightShoulder  1.6193 -0.432082 46.3967
RightArm  47.009 -19.5477 10.0543
RightForeArm  1.11857 39.4878 9.164
RightHand  -0.00540613 2.50854 -0.280557
LeftUpLeg  -33.2864 18.0876 -0.898357
LeftLeg  43.0223 0.0580021 0.478437
LeftFoot  -15.5319 -0.228501 -8.77187
LeftToes  2.52163e-011 5.65494e-011 -1.09494e-012
1448
root  58.5781 36.53 78.3486 -163.378 -70.9775 171.505
RightUpLeg  -35.0965 -17.2012 0.61744
RightLeg  69.1719 -4.42476 -13.4566
RightFoot  -8.50638 -0.247481 7.64974
RightToes  1.22775e-009 1.2921e-014 -6.02303e-014
Spine  14.6254 -0.178881 -10.8241
Spine1  -2.5693 -1.55337 1.11452
HEad  -21.4313 8.89683 3.93516
LeftShoulder1  1.19745 -0.572902 -23.0775
LeftArm  0.548734 7.39768 -29.6273
LeftForeArm  45.039 -66.1177 -20.8792
LeftHand  0.108237 -4.22494 -1.03083
RightShoulder  -0.510886 -4.56491 40.4104
RightArm  48.854 -26.3461 6.102
RightForeArm  7.28288 47.437 11.7033
RightHand  -0.0268841 2.01279 -0.594686
LeftUpLeg  -29.4318 18.0587 -0.21019
LeftLeg  41.1714 1.1147 1.45406
LeftFoot  -15.72 -0.29436 -10.137
LeftToes  2.52163e-011 5.65494e-011 -1.09494e-012
1449
root  57.1479 37.0674 78.1915 -167.258 -69.8731 175.492
RightUpLeg  -39.7055 -16.4 3.22573
RightLeg  58.1615 -5.59163 -10.0762
RightFoot  -8.04324 -0.294292 8.30494
RightToes  1.22775e-009 1.2921e-014 -6.02303e-014
Spine  15.748 -0.514337 -8.02777
Spine1  -2.5229 -1.70092 1.59405
HEad  -22.2996 10.6243 1.86844
LeftShoulder1  0.954183 0.205548 -22.601
LeftArm  -4.65156 12.7425 -25.6102
LeftForeArm  85.5257 -80.0134 -69.0321
LeftHand  0.172491 -1.38344 -2.84131
RightShoulder  -1.61022 -7.32923 35.5147
RightArm  50.2308 -32.3396 2.04634
RightForeArm  10.2783 54.0711 14.7828
RightHand  -0.0206104 1.62998 -0.488936
LeftUpLeg  -27.896 18.102 1.52468
LeftLeg  42.8485 2.14779 2.54379
LeftFoot  -12.3617 -0.0536055 -14.2413
LeftToes  2.52163e-011 5.65494e-011 -1.09494e-012
1450
root  55.8952 37.3656 77.9813 -170.864 -69.6918 179.319
RightUpLeg  -41.732 -14.9631 5.36039
RightLeg  43.3993 -4.21211 -4.55649
RightFoot  -7.35223 -0.389803 9.73098
RightToes  1.22775e-009 1.2921e-014 -6.02303e-014
Spine  17.4878 -0.51957 -4.92889
Spine1  -2.55972 -1.71627 2.39292
HEad  -23.2039 10.8744 0.729216
LeftShoulder1  0.690157 0.98715 -20.9933
LeftArm  -10.5394 15.6146 -22.9712
LeftForeArm  141.2 -76.6801 -133.638
LeftHand  0.129126 0.85448 -3.46764
RightShoulder  -2.22131 -9.23845 32.2825
RightArm  51.2794 -36.9447 -0.420205
RightForeArm  13.075 58.2954 17.3232
RightHand  -0.0131559 1.94062 -0.376492
LeftUpLeg  -30.4256 17.9029 3.21578
LeftLeg  49.1439 3.49776 4.77124
LeftFoot  -3.46695 1.191 -16.9
LeftToes  2.52163e-011 5.65494e-011 -1.09494e-012
1451
root  54.6478 37.0396 77.7654 -173.62 -70.9976 -177.613
RightUpLeg  -43.0776 -13.3779 5.58909
RightLeg  31.1354 -0.284045 -0.433556
RightFoot  -8.00115 -0.451334 13.5459
RightToes  1.22775e-009 1.2921e-014 -6.02303e-014
Spine  19.1118 -0.431046 -1.76845
Spine1  -2.88342 -1.77893 3.72621
HEad  -24.0788 10.2662 -0.419858
LeftShoulder1  0.596284 1.24588 -19.9062
LeftArm  -15.1444 16.5637 -20.9771
LeftForeArm  155.663 -70.3154 -150.991
LeftHand  0.0395454 2.75121 -2.47583
RightShoulder  -2.85663 -11.2216 30.5587
RightArm  50.659 -40.4185 -1.37036
RightForeArm  17.2985 61.5947 19.6343
RightHand  0.054842 2.06738 0.67977
LeftUpLeg  -35.7247 16.687 3.64105
LeftLeg  56.8914 4.25606 7.52004
LeftFoot  3.33117 0.949131 -7.52281
LeftToes  2.52163e-011 5.65494e-011 -1.09494e-012
